<svg width="137" height="53" viewBox="0 0 137 53" fill="none" xmlns="http://www.w3.org/2000/svg">
<path d="M72.18 22L67.54 8H70.24L74.38 20.66H73.04L77.34 8H79.74L83.92 20.66H82.62L86.86 8H89.34L84.7 22H81.94L78.12 10.58H78.84L74.96 22H72.18ZM91.4581 22V8H97.5781C99.0981 8 100.431 8.29333 101.578 8.88C102.725 9.46667 103.618 10.28 104.258 11.32C104.898 12.36 105.218 13.5867 105.218 15C105.218 16.4 104.898 17.6267 104.258 18.68C103.618 19.72 102.725 20.5333 101.578 21.12C100.431 21.7067 99.0981 22 97.5781 22H91.4581ZM94.0581 19.8H97.4581C98.5115 19.8 99.4181 19.6 100.178 19.2C100.951 18.8 101.545 18.24 101.958 17.52C102.385 16.8 102.598 15.96 102.598 15C102.598 14.0267 102.385 13.1867 101.958 12.48C101.545 11.76 100.951 11.2 100.178 10.8C99.4181 10.4 98.5115 10.2 97.4581 10.2H94.0581V19.8ZM105.806 22L112.106 8H114.666L120.986 22H118.266L112.846 9.38H113.886L108.486 22H105.806ZM108.706 18.76L109.406 16.72H116.966L117.666 18.76H108.706ZM68.64 46V31.16H71.14V46H68.64ZM74.4213 46V35.32H76.9213V46H74.4213ZM75.6813 33.56C75.2146 33.56 74.8279 33.4133 74.5213 33.12C74.2279 32.8267 74.0813 32.4733 74.0813 32.06C74.0813 31.6333 74.2279 31.28 74.5213 31C74.8279 30.7067 75.2146 30.56 75.6813 30.56C76.1479 30.56 76.5279 30.7 76.8213 30.98C77.1279 31.2467 77.2813 31.5867 77.2813 32C77.2813 32.44 77.1346 32.8133 76.8413 33.12C76.5479 33.4133 76.1613 33.56 75.6813 33.56ZM83.0425 46L78.4625 35.32H81.0625L85.0025 44.74H83.7225L87.8025 35.32H90.2025L85.6225 46H83.0425ZM91.765 46V35.32H94.145V38.26L93.865 37.4C94.185 36.68 94.685 36.1333 95.365 35.76C96.0583 35.3867 96.9183 35.2 97.945 35.2V37.58C97.8383 37.5533 97.7383 37.54 97.645 37.54C97.5517 37.5267 97.4583 37.52 97.365 37.52C96.4183 37.52 95.665 37.8 95.105 38.36C94.545 38.9067 94.265 39.7267 94.265 40.82V46H91.765ZM105.884 46V43.84L105.744 43.38V39.6C105.744 38.8667 105.524 38.3 105.084 37.9C104.644 37.4867 103.977 37.28 103.084 37.28C102.484 37.28 101.891 37.3733 101.304 37.56C100.731 37.7467 100.244 38.0067 99.8441 38.34L98.8641 36.52C99.4374 36.08 100.117 35.7533 100.904 35.54C101.704 35.3133 102.531 35.2 103.384 35.2C104.931 35.2 106.124 35.5733 106.964 36.32C107.817 37.0533 108.244 38.1933 108.244 39.74V46H105.884ZM102.524 46.14C101.724 46.14 101.024 46.0067 100.424 45.74C99.8241 45.46 99.3574 45.08 99.0241 44.6C98.7041 44.1067 98.5441 43.5533 98.5441 42.94C98.5441 42.34 98.6841 41.8 98.9641 41.32C99.2574 40.84 99.7307 40.46 100.384 40.18C101.037 39.9 101.904 39.76 102.984 39.76H106.084V41.42H103.164C102.311 41.42 101.737 41.56 101.444 41.84C101.151 42.1067 101.004 42.44 101.004 42.84C101.004 43.2933 101.184 43.6533 101.544 43.92C101.904 44.1867 102.404 44.32 103.044 44.32C103.657 44.32 104.204 44.18 104.684 43.9C105.177 43.62 105.531 43.2067 105.744 42.66L106.164 44.16C105.924 44.7867 105.491 45.2733 104.864 45.62C104.251 45.9667 103.471 46.14 102.524 46.14ZM111.453 46V35.32H113.833V38.26L113.553 37.4C113.873 36.68 114.373 36.1333 115.053 35.76C115.746 35.3867 116.606 35.2 117.633 35.2V37.58C117.526 37.5533 117.426 37.54 117.333 37.54C117.239 37.5267 117.146 37.52 117.053 37.52C116.106 37.52 115.353 37.8 114.793 38.36C114.233 38.9067 113.953 39.7267 113.953 40.82V46H111.453ZM119.753 46V35.32H122.253V46H119.753ZM121.013 33.56C120.547 33.56 120.16 33.4133 119.853 33.12C119.56 32.8267 119.413 32.4733 119.413 32.06C119.413 31.6333 119.56 31.28 119.853 31C120.16 30.7067 120.547 30.56 121.013 30.56C121.48 30.56 121.86 30.7 122.153 30.98C122.46 31.2467 122.613 31.5867 122.613 32C122.613 32.44 122.467 32.8133 122.173 33.12C121.88 33.4133 121.493 33.56 121.013 33.56ZM132.115 46V43.84L131.975 43.38V39.6C131.975 38.8667 131.755 38.3 131.315 37.9C130.875 37.4867 130.208 37.28 129.315 37.28C128.715 37.28 128.121 37.3733 127.535 37.56C126.961 37.7467 126.475 38.0067 126.075 38.34L125.095 36.52C125.668 36.08 126.348 35.7533 127.135 35.54C127.935 35.3133 128.761 35.2 129.615 35.2C131.161 35.2 132.355 35.5733 133.195 36.32C134.048 37.0533 134.475 38.1933 134.475 39.74V46H132.115ZM128.755 46.14C127.955 46.14 127.255 46.0067 126.655 45.74C126.055 45.46 125.588 45.08 125.255 44.6C124.935 44.1067 124.775 43.5533 124.775 42.94C124.775 42.34 124.915 41.8 125.195 41.32C125.488 40.84 125.961 40.46 126.615 40.18C127.268 39.9 128.135 39.76 129.215 39.76H132.315V41.42H129.395C128.541 41.42 127.968 41.56 127.675 41.84C127.381 42.1067 127.235 42.44 127.235 42.84C127.235 43.2933 127.415 43.6533 127.775 43.92C128.135 44.1867 128.635 44.32 129.275 44.32C129.888 44.32 130.435 44.18 130.915 43.9C131.408 43.62 131.761 43.2067 131.975 42.66L132.395 44.16C132.155 44.7867 131.721 45.2733 131.095 45.62C130.481 45.9667 129.701 46.14 128.755 46.14Z" fill="white"/>
<path d="M37.5494 6.19589C37.6746 6.23628 37.7998 6.27667 37.9288 6.31829C38.0628 6.3633 38.1967 6.40831 38.3347 6.45469C38.4808 6.50244 38.627 6.55003 38.7732 6.59748C39.0879 6.6999 39.4022 6.80331 39.7163 6.90752C40.2186 7.07409 40.7214 7.23843 41.2244 7.4023C41.3105 7.43032 41.3965 7.45835 41.4851 7.48723C41.6618 7.54481 41.8385 7.60238 42.0152 7.65994C42.2875 7.74871 42.5597 7.8377 42.8319 7.92672C44.1982 8.37328 45.567 8.81071 46.9372 9.24366C47.0367 9.2751 47.1362 9.30653 47.2387 9.33892C48.026 9.58765 48.8134 9.83594 49.6008 10.0841C50.6553 10.4165 51.7095 10.7495 52.7628 11.0861C53.2494 11.2415 53.7368 11.3933 54.2248 11.5436C54.4489 11.6144 54.673 11.6854 54.897 11.7564C54.9952 11.7857 55.0934 11.815 55.1946 11.8452C55.6156 11.9813 55.8307 12.0542 56.116 12.4203C56.2177 12.7099 56.2177 12.7099 56.1621 13.0109C55.8315 13.5782 55.3417 13.8299 54.7784 14.0902C53.9725 14.5141 53.6238 14.9035 53.2982 15.7866C52.8816 17.2413 52.9471 18.7222 52.9914 20.2279C53.0613 20.2411 53.1312 20.2542 53.2032 20.2677C53.827 20.3911 54.4096 20.551 55.0009 20.7933C55.077 20.8239 55.1531 20.8545 55.2315 20.886C56.5939 21.4474 56.5939 21.4474 56.9965 21.8725C57.001 22.0682 57.0013 22.2641 56.9965 22.4599C54.9 23.1647 54.9 23.1647 54.1039 23.1647C54.147 23.2331 54.19 23.3016 54.2343 23.3721C55.5213 25.5114 55.5536 28.0188 55.1052 30.4478C54.7974 31.8212 54.2624 33.3904 53.1027 34.2068C53.1804 34.2366 53.2581 34.2664 53.3382 34.2972C53.4394 34.3376 53.5407 34.378 53.645 34.4197C53.7457 34.4592 53.8464 34.4987 53.9501 34.5394C54.2152 34.6766 54.2152 34.6766 54.4377 35.0291C54.4864 35.308 54.4864 35.308 54.4377 35.6164C54.0445 36.1044 53.6625 36.3345 53.1096 36.5855C52.264 37.0034 51.8887 37.4661 51.5477 38.3719C51.1245 39.7646 51.1906 41.2299 51.3226 42.6646C51.3982 42.6899 51.4739 42.7153 51.5518 42.7415C51.8999 42.8591 52.2475 42.9784 52.5951 43.0977C52.7735 43.1576 52.7735 43.1576 52.9556 43.2186C54.8545 43.8747 54.8545 43.8747 55.3277 44.5441C55.3076 44.78 55.3076 44.78 55.2165 45.0139C55.034 45.1181 55.034 45.1181 54.7808 45.1861C54.6792 45.2143 54.5776 45.2425 54.473 45.2715C54.2903 45.3185 54.2903 45.3185 54.1039 45.3663C53.9588 45.4052 53.8136 45.4441 53.6685 45.4831C53.1343 45.6257 52.5989 45.7633 52.0636 45.9009C51.8586 45.9538 51.6536 46.0068 51.4487 46.0598C50.8945 46.2029 50.3402 46.3456 49.7859 46.4882C49.4361 46.5783 49.0863 46.6685 48.7365 46.7587C44.9129 47.7447 41.0881 48.7255 37.2618 49.6996C37.1591 49.7257 37.0565 49.7519 36.9507 49.7788C36.5371 49.8841 36.1234 49.9894 35.7098 50.0946C34.3148 50.4497 32.9204 50.8068 31.5263 51.1657C30.7684 51.3608 30.0103 51.5553 29.2522 51.7496C28.7391 51.8812 28.2261 52.0131 27.7133 52.1458C27.2395 52.2684 26.7654 52.3902 26.2912 52.5113C26.1182 52.5557 25.9453 52.6003 25.7725 52.6454C25.5363 52.7069 25.2999 52.7672 25.0635 52.8272C24.9317 52.8611 24.7999 52.8951 24.6642 52.93C23.9562 53.0652 23.4126 53.002 22.733 52.7621C22.6592 52.7364 22.5855 52.7108 22.5095 52.6843C22.2657 52.5992 22.0225 52.5123 21.7792 52.4255C21.6061 52.3647 21.4329 52.304 21.2597 52.2435C20.8914 52.1144 20.5233 51.9847 20.1554 51.8543C19.5761 51.6491 18.9963 51.4456 18.4164 51.2425C18.3201 51.2087 18.2238 51.175 18.1246 51.1403C17.9306 51.0723 17.7366 51.0043 17.5425 50.9364C17.2522 50.8346 16.9618 50.7327 16.6715 50.6308C15.2804 50.1426 13.8866 49.6644 12.4893 49.1962C11.844 48.9799 11.1991 48.7619 10.5542 48.5442C10.4434 48.5068 10.3327 48.4694 10.2186 48.4309C10.1031 48.3919 9.98757 48.3529 9.86855 48.3128C9.60092 48.2225 9.33326 48.1324 9.06556 48.0424C8.21012 47.7547 7.35509 47.4657 6.50084 47.1741C6.11861 47.0436 5.73622 46.9138 5.35332 46.7856C4.92854 46.6434 4.50468 46.4983 4.08083 46.3529C3.89158 46.2902 3.89158 46.2902 3.6985 46.2263C2.35009 45.7582 1.48557 44.9577 0.792779 43.6484C0.15552 42.2098 0.0132538 40.6303 0.00705262 39.0671C0.00475802 38.9252 0.00246343 38.7833 9.92952e-05 38.6371C-0.00651275 37.0157 0.315753 35.4435 1.3699 34.2068C0.929342 34.0517 0.488779 33.8967 0.0348659 33.7369C0.0348659 33.1496 0.0348659 33.1496 0.207694 32.9561C0.89235 32.5004 1.58305 32.1983 2.35032 31.9308C2.46412 31.8892 2.57792 31.8475 2.69517 31.8046C3.17112 31.6341 3.53277 31.505 4.03998 31.505C4.21324 28.5366 4.21324 28.5366 3.09303 25.9133C2.8642 25.6862 2.65575 25.54 2.37118 25.3966C2.18084 25.2993 1.99081 25.2014 1.80101 25.1029C1.70665 25.0557 1.61228 25.0084 1.51506 24.9597C1.19218 24.7702 0.984429 24.5915 0.827545 24.2366C0.805429 23.8396 0.90429 23.707 1.1474 23.3996C1.53079 23.2059 1.92984 23.0801 2.33642 22.9518C2.50131 22.8969 2.50131 22.8969 2.66952 22.8409C2.94041 22.7511 3.21174 22.6634 3.48372 22.5773C3.41761 22.4881 3.41761 22.4881 3.35016 22.3971C2.47756 21.1981 2.0461 19.9541 1.81492 18.4659C1.79298 18.333 1.79298 18.333 1.77059 18.1975C1.48688 16.0965 1.62884 13.7763 2.8162 12.0051C3.64984 11.0012 4.63808 10.571 5.87095 10.4014C5.97137 10.3863 6.07178 10.3712 6.17524 10.3557C6.50712 10.3061 6.83925 10.2587 7.17142 10.2114C7.40952 10.1762 7.6476 10.141 7.88565 10.1056C8.38821 10.031 8.89087 9.95744 9.39364 9.88455C10.1354 9.77691 10.8767 9.66662 11.618 9.55561C13.158 9.32525 14.6983 9.09774 16.2387 8.8706C16.5175 8.82948 16.7963 8.78835 17.0751 8.74722C18.3065 8.56559 19.5379 8.38409 20.7693 8.20284C20.9906 8.17027 21.2119 8.1377 21.4331 8.10513C21.5063 8.09436 21.5796 8.08358 21.655 8.07248C22.8532 7.89608 24.0514 7.719 25.2495 7.54166C26.4915 7.35785 27.7335 7.17466 28.9756 6.99203C29.6684 6.89015 30.3612 6.788 31.0539 6.6852C31.7013 6.58913 32.3488 6.49382 32.9964 6.3991C33.2331 6.36434 33.4698 6.3293 33.7065 6.29397C34.0302 6.24568 34.354 6.1984 34.6779 6.15135C34.7705 6.13728 34.8632 6.12322 34.9587 6.10873C35.8329 5.98377 36.6977 5.9149 37.5494 6.19589ZM4.26249 13.6497C3.30888 15.2093 3.47686 17.1948 3.81748 18.9358C4.01884 19.7413 4.28753 20.5247 4.93001 21.0502C5.45156 21.3038 5.96374 21.4927 6.51835 21.6548C6.59608 21.6777 6.67381 21.7006 6.75389 21.7242C7.01235 21.8002 7.27102 21.8753 7.52968 21.9505C7.71617 22.0052 7.90264 22.0599 8.08909 22.1147C8.59467 22.2631 9.10041 22.4108 9.6062 22.5584C10.4655 22.8093 11.3244 23.0615 12.1834 23.3135C12.4074 23.3792 12.6315 23.4448 12.8555 23.5105C14.4876 23.9888 16.1186 24.4712 17.7486 24.9574C18.0948 25.0607 18.4411 25.1639 18.7874 25.2671C20.6169 25.8123 20.6169 25.8123 21.4582 26.0643C21.9772 26.2197 22.4964 26.3746 23.0157 26.5291C23.2067 26.586 23.3977 26.6432 23.5886 26.7006C23.8491 26.7789 24.1098 26.8564 24.3705 26.9338C24.4465 26.9568 24.5224 26.9799 24.6007 27.0036C24.9618 27.1099 25.2435 27.1586 25.6231 27.1586C25.6551 26.3437 25.6868 25.5287 25.7182 24.7137C25.7289 24.4369 25.7397 24.16 25.7505 23.8832C25.7662 23.4837 25.7816 23.0842 25.7969 22.6847C25.8018 22.5623 25.8067 22.4399 25.8117 22.3138C25.8396 21.5788 25.8517 20.846 25.8456 20.1105C21.0977 18.4278 16.3379 16.7807 11.5733 15.1515C11.3891 15.0885 11.2049 15.0255 11.0207 14.9625C10.9316 14.932 10.8425 14.9015 10.7508 14.8701C10.1857 14.6763 9.62187 14.4791 9.05858 14.2797C8.67709 14.1448 8.29525 14.0111 7.91338 13.8774C7.73545 13.8148 7.5577 13.7516 7.38015 13.6878C5.73549 12.9967 5.73549 12.9967 4.26249 13.6497ZM51.5611 14.8175C51.4466 14.8421 51.332 14.8668 51.214 14.8921C51.0875 14.9196 50.9609 14.947 50.8306 14.9753C50.6973 15.004 50.5639 15.0327 50.4266 15.0623C50.0574 15.1419 49.6882 15.2217 49.319 15.3016C48.926 15.3866 48.5328 15.4714 48.1397 15.5562C47.2922 15.7391 46.4448 15.9223 45.5974 16.1056C45.0739 16.2188 44.5504 16.332 44.0269 16.4451C41.873 16.9105 39.7193 17.3766 37.5657 17.8431C37.0427 17.9564 36.5196 18.0697 35.9966 18.1829C34.5622 18.4935 33.128 18.8046 31.6939 19.1167C31.2814 19.2065 30.8688 19.2961 30.4562 19.3855C29.9812 19.4885 29.5063 19.5919 29.0315 19.6957C28.8614 19.7328 28.6912 19.7698 28.521 19.8066C28.2939 19.8557 28.0669 19.9054 27.8399 19.9552C27.7142 19.9826 27.5885 20.01 27.4589 20.0382C27.189 20.0814 27.189 20.0814 27.0694 20.2279C26.9816 20.7648 26.9398 21.2922 26.9229 21.8363C26.9183 21.9862 26.9136 22.1362 26.9088 22.2908C26.9066 22.3684 26.9045 22.4461 26.9022 22.5261C26.8958 22.7542 26.8884 22.9823 26.881 23.2103C26.8529 24.1565 26.8442 25.1011 26.8456 26.0477C26.8457 26.1663 26.8458 26.285 26.8459 26.4073C26.8461 26.6969 26.8465 26.9865 26.8469 27.2761C30.5665 26.3127 34.285 25.345 38.0005 24.3641C38.0812 24.3428 38.1618 24.3215 38.245 24.2996C39.2257 24.0407 40.2064 23.7815 41.1871 23.5222C42.024 23.301 42.8609 23.0799 43.6978 22.8588C45.0091 22.5125 46.3203 22.166 47.6315 21.8195C49.0472 21.4453 50.463 21.0714 51.8789 20.6978C51.8711 20.6196 51.8633 20.5415 51.8553 20.4609C51.8452 20.357 51.8351 20.2532 51.8247 20.1462C51.8146 20.0437 51.8045 19.9413 51.7942 19.8358C51.6694 18.3662 51.7262 16.9534 52.1014 15.5292C52.125 15.4357 52.1487 15.3423 52.1731 15.2461C52.2204 15.0654 52.2714 14.8859 52.3239 14.7069C52.0572 14.7069 51.8228 14.761 51.5611 14.8175ZM49.7242 24.9386C49.5792 24.9896 49.4341 25.0404 49.289 25.091C48.9812 25.1988 48.6738 25.3075 48.3666 25.417C47.8826 25.5895 47.398 25.7599 46.9133 25.9299C46.3461 26.1289 45.779 26.3285 45.2122 26.5287C44.1015 26.921 42.9887 27.306 41.8745 27.687C41.4074 27.8468 40.9406 28.0073 40.4737 28.1677C40.3812 28.1994 40.2888 28.2311 40.1936 28.2638C39.0636 28.6518 37.9338 29.0407 36.8042 29.4299C36.5737 29.5093 36.3431 29.5886 36.1126 29.668C34.468 30.2339 32.8261 30.808 31.1858 31.3875C31.1992 32.0326 31.213 32.6776 31.2272 33.3226C31.2319 33.541 31.2366 33.7593 31.2411 33.9777C31.272 35.4656 31.3258 36.9499 31.4083 38.4357C31.9284 38.366 32.4204 38.2633 32.9251 38.1142C32.9953 38.0937 33.0654 38.0731 33.1377 38.0519C33.3711 37.9833 33.6043 37.914 33.8376 37.8446C34.0065 37.7948 34.1755 37.7451 34.3444 37.6954C34.8041 37.5599 35.2637 37.4238 35.7232 37.2876C36.2076 37.1441 36.6921 37.0012 37.1766 36.8582C38.113 36.5816 39.0493 36.3045 39.9855 36.0272C40.7718 35.7943 41.5581 35.5618 42.3446 35.3294C43.5911 34.9612 44.8375 34.5925 46.0839 34.2236C46.413 34.1262 46.7421 34.0289 47.0713 33.9316C47.5915 33.7778 48.1116 33.6237 48.6317 33.4694C48.823 33.4127 49.0143 33.3561 49.2056 33.2996C51.2025 32.8642 51.2025 32.8642 52.7028 31.5912C53.0011 30.9944 53.2177 30.4082 53.3252 29.7429C53.3375 29.6666 53.3498 29.5903 53.3625 29.5117C53.5491 28.0851 53.6337 26.3669 52.8871 25.0956C52.5163 24.6329 52.3811 24.4721 51.7889 24.4185C51.0609 24.4299 50.4071 24.6928 49.7242 24.9386ZM4.7075 25.9839C4.73834 26.0931 4.76917 26.2023 4.80094 26.3148C4.84124 26.46 4.88153 26.6052 4.92305 26.7548C4.96307 26.8979 5.00308 27.041 5.0443 27.1884C5.21844 27.8966 5.2776 28.5715 5.27463 29.302C5.27448 29.379 5.27432 29.4561 5.27416 29.5355C5.27354 29.7784 5.27214 30.0213 5.27072 30.2642C5.27016 30.4302 5.26965 30.5963 5.2692 30.7623C5.26798 31.1665 5.26607 31.5707 5.26377 31.9749C11.3568 33.613 17.4548 35.2297 23.5561 36.8331C23.8311 36.9054 24.106 36.9777 24.381 37.05C25.2723 37.2843 26.1637 37.518 27.0555 37.7504C27.3028 37.8149 27.5501 37.8796 27.7974 37.9444C28.1254 38.0304 28.4535 38.1157 28.7817 38.2007C28.8744 38.2252 28.9671 38.2496 29.0627 38.2748C29.4512 38.3747 29.782 38.4357 30.1845 38.4357C30.1987 36.9515 30.1779 35.4699 30.1358 33.9865C30.1336 33.9045 30.1314 33.8225 30.1292 33.738C30.1228 33.5005 30.1156 33.2631 30.1084 33.0257C30.1044 32.8882 30.1003 32.7507 30.0961 32.6091C30.0725 32.1968 30.0193 31.7959 29.962 31.3875C29.8401 31.3614 29.7182 31.3353 29.5927 31.3084C28.116 30.9919 26.6394 30.675 25.1629 30.3579C24.8958 30.3005 24.6288 30.2432 24.3618 30.1859C21.078 29.4807 17.7951 28.7719 14.5139 28.0535C14.2881 28.0041 14.0623 27.9547 13.8364 27.9052C12.381 27.5867 10.9257 27.2677 9.47052 26.9477C8.93183 26.8293 8.39309 26.7112 7.85433 26.5931C7.60311 26.538 7.35192 26.4828 7.10075 26.4274C6.75828 26.3518 6.41573 26.2767 6.07315 26.2017C5.97253 26.1794 5.8719 26.1571 5.76823 26.1341C5.67657 26.1141 5.58492 26.0942 5.49048 26.0736C5.41123 26.0561 5.33197 26.0387 5.25032 26.0207C5.02172 25.9743 5.02172 25.9743 4.7075 25.9839ZM2.59369 36.0863C1.66659 37.5127 1.72769 39.5599 2.00266 41.2104C2.19403 42.0465 2.44679 42.762 3.0387 43.3694C3.1414 43.4787 3.1414 43.4787 3.24616 43.5903C3.7619 43.9584 4.31263 44.0859 4.91045 44.2527C5.11793 44.3125 5.32541 44.3724 5.53288 44.4323C5.75725 44.4967 5.98178 44.5605 6.20638 44.624C6.68248 44.7588 7.15805 44.8955 7.63352 45.0327C7.7997 45.0807 7.96587 45.1286 8.13205 45.1765C8.21595 45.2007 8.29985 45.2249 8.38629 45.2499C8.64746 45.3251 8.90868 45.4002 9.16992 45.4753C11.2239 46.0658 13.2731 46.6747 15.3224 47.2831C15.8011 47.4252 16.2798 47.5671 16.7586 47.709C16.9439 47.7639 17.1292 47.8189 17.3146 47.8738C17.6742 47.9804 18.0338 48.087 18.3935 48.1935C19.1759 48.4254 19.9582 48.6579 20.7399 48.8928C21.0741 48.9932 21.4083 49.0933 21.7426 49.1934C21.8987 49.2403 22.0548 49.2873 22.2109 49.3345C22.4239 49.3989 22.6371 49.4628 22.8502 49.5266C22.9701 49.5627 23.0899 49.5988 23.2133 49.636C23.5125 49.7267 23.5125 49.7267 23.8431 49.7127C23.9408 49.2618 23.9752 48.8325 23.9895 48.3705C23.9942 48.2224 23.9989 48.0742 24.0037 47.9216C24.0081 47.7624 24.0125 47.6032 24.0169 47.4441C24.0204 47.3238 24.0204 47.3238 24.024 47.201C24.0683 45.6887 24.078 44.1775 24.0656 42.6646C23.4592 42.4209 22.8503 42.1919 22.2347 41.9758C22.1453 41.9443 22.056 41.9128 21.9639 41.8804C21.6702 41.7769 21.3764 41.6737 21.0826 41.5706C20.9801 41.5346 20.8776 41.4986 20.7719 41.4614C18.7381 40.7467 16.7004 40.0451 14.6616 39.3464C13.6577 39.0023 12.6543 38.6562 11.6511 38.3099C11.1881 38.1501 10.725 37.9906 10.2619 37.8314C9.28673 37.4961 8.31182 37.1602 7.33941 36.8161C6.95894 36.6815 6.57811 36.5481 6.19725 36.4148C6.0226 36.3534 5.84813 36.2913 5.67386 36.2287C4.09104 35.5786 4.09104 35.5786 2.59369 36.0863ZM49.6286 37.3782C49.4478 37.4172 49.4478 37.4172 49.2634 37.457C49.1311 37.486 48.9989 37.5149 48.8626 37.5447C48.6536 37.5899 48.6536 37.5899 48.4403 37.6361C48.0575 37.7191 47.6747 37.8025 47.2919 37.886C46.9713 37.9558 46.6507 38.0255 46.3301 38.0951C45.572 38.2599 44.8139 38.4249 44.0559 38.5902C43.2779 38.7599 42.4998 38.929 41.7216 39.0979C41.0513 39.2433 40.381 39.3891 39.7107 39.5351C39.3115 39.6221 38.9123 39.709 38.513 39.7956C35.4869 40.4249 35.4869 40.4249 32.5434 41.3797C32.0272 41.5659 31.599 41.616 31.0532 41.5949C30.0167 41.5724 29.0372 41.8182 28.0292 42.0526C27.6981 42.1295 27.3665 42.2042 27.0349 42.2784C26.8243 42.3261 26.6137 42.3739 26.4032 42.4218C26.304 42.4443 26.2048 42.4669 26.1026 42.4901C25.6601 42.557 25.6601 42.557 25.2893 42.782C25.2724 42.9685 25.2629 43.1558 25.2563 43.343C25.2518 43.4627 25.2474 43.5823 25.2428 43.7056C25.2385 43.836 25.2342 43.9664 25.2298 44.1008C25.225 44.2343 25.2202 44.3677 25.2153 44.5052C25.2053 44.7887 25.1955 45.0721 25.1859 45.3555C25.1713 45.7879 25.156 46.2202 25.1405 46.6525C25.1308 46.9277 25.1212 47.2029 25.1116 47.478C25.1071 47.607 25.1026 47.736 25.0979 47.8689C25.0772 48.484 25.0615 49.0973 25.0668 49.7127C25.6548 49.6439 26.2134 49.5425 26.7888 49.3917C26.8679 49.3711 26.9471 49.3505 27.0287 49.3293C27.2933 49.2603 27.5577 49.1905 27.8221 49.1208C28.0152 49.0703 28.2082 49.0198 28.4013 48.9694C28.931 48.8309 29.4605 48.6917 29.9899 48.5523C30.4371 48.4347 30.8843 48.3176 31.3316 48.2004C37.5896 46.5608 43.8441 44.9057 50.0988 43.2519C50.0977 43.1374 50.0965 43.023 50.0953 42.9051C50.0912 42.4747 50.0887 42.0444 50.0866 41.6141C50.0855 41.4289 50.084 41.2437 50.082 41.0585C50.0685 39.7364 50.1297 38.5221 50.5438 37.261C50.2168 37.261 49.9483 37.3088 49.6286 37.3782Z" fill="#FFFEFE"/>
</svg>
